<?xml version="1.0" encoding="UTF-8"?>
<svg xmlns="http://www.w3.org/2000/svg" xmlns:xlink="http://www.w3.org/1999/xlink" width="900pt" height="600pt" viewBox="0 0 900 600" version="1.1">
<g id="surface1">
<rect x="0" y="0" width="900" height="600" style="fill:rgb(100%,100%,100%);fill-opacity:1;stroke:none;"/>
<path style=" stroke:none;fill-rule:nonzero;fill:rgb(74.901961%,3.921569%,18.823529%);fill-opacity:1;" d="M 0 0 L 900 0 L 900 46.152344 L 0 46.152344 Z M 0 0 "/>
<path style=" stroke:none;fill-rule:nonzero;fill:rgb(74.901961%,3.921569%,18.823529%);fill-opacity:1;" d="M 0 92.308594 L 900 92.308594 L 900 138.460938 L 0 138.460938 Z M 0 92.308594 "/>
<path style=" stroke:none;fill-rule:nonzero;fill:rgb(74.901961%,3.921569%,18.823529%);fill-opacity:1;" d="M 0 184.617188 L 900 184.617188 L 900 230.769531 L 0 230.769531 Z M 0 184.617188 "/>
<path style=" stroke:none;fill-rule:nonzero;fill:rgb(74.901961%,3.921569%,18.823529%);fill-opacity:1;" d="M 0 276.921875 L 900 276.921875 L 900 323.078125 L 0 323.078125 Z M 0 276.921875 "/>
<path style=" stroke:none;fill-rule:nonzero;fill:rgb(74.901961%,3.921569%,18.823529%);fill-opacity:1;" d="M 0 369.230469 L 900 369.230469 L 900 415.382812 L 0 415.382812 Z M 0 369.230469 "/>
<path style=" stroke:none;fill-rule:nonzero;fill:rgb(74.901961%,3.921569%,18.823529%);fill-opacity:1;" d="M 0 461.539062 L 900 461.539062 L 900 507.691406 L 0 507.691406 Z M 0 461.539062 "/>
<path style=" stroke:none;fill-rule:nonzero;fill:rgb(74.901961%,3.921569%,18.823529%);fill-opacity:1;" d="M 0 553.847656 L 900 553.847656 L 900 600 L 0 600 Z M 0 553.847656 "/>
<path style=" stroke:none;fill-rule:nonzero;fill:rgb(0%,15.686275%,40.784314%);fill-opacity:1;" d="M 0 0 L 360 0 L 360 323.078125 L 0 323.078125 Z M 0 0 "/>
<path style=" stroke:none;fill-rule:nonzero;fill:rgb(100%,100%,100%);fill-opacity:1;" d="M 32.253906 37.648438 L 44.664062 26.226562 L 29.324219 26.226562 Z M 32.253906 37.648438 "/>
<path style=" stroke:none;fill-rule:nonzero;fill:rgb(100%,100%,100%);fill-opacity:1;" d="M 26.953125 35.46875 L 39.363281 46.890625 L 34.625 28.410156 Z M 26.953125 35.46875 "/>
<path style=" stroke:none;fill-rule:nonzero;fill:rgb(100%,100%,100%);fill-opacity:1;" d="M 26.953125 28.410156 L 22.214844 46.890625 L 34.625 35.46875 Z M 26.953125 28.410156 "/>
<path style=" stroke:none;fill-rule:nonzero;fill:rgb(100%,100%,100%);fill-opacity:1;" d="M 32.253906 26.226562 L 16.914062 26.226562 L 29.324219 37.648438 Z M 32.253906 26.226562 "/>
<path style=" stroke:none;fill-rule:nonzero;fill:rgb(100%,100%,100%);fill-opacity:1;" d="M 35.53125 31.9375 L 30.789062 13.457031 L 26.050781 31.9375 Z M 35.53125 31.9375 "/>
<path style=" stroke:none;fill-rule:nonzero;fill:rgb(100%,100%,100%);fill-opacity:1;" d="M 91.9375 37.648438 L 104.347656 26.226562 L 89.007812 26.226562 Z M 91.9375 37.648438 "/>
<path style=" stroke:none;fill-rule:nonzero;fill:rgb(100%,100%,100%);fill-opacity:1;" d="M 86.636719 35.46875 L 99.050781 46.890625 L 94.308594 28.410156 Z M 86.636719 35.46875 "/>
<path style=" stroke:none;fill-rule:nonzero;fill:rgb(100%,100%,100%);fill-opacity:1;" d="M 86.636719 28.410156 L 81.898438 46.890625 L 94.308594 35.46875 Z M 86.636719 28.410156 "/>
<path style=" stroke:none;fill-rule:nonzero;fill:rgb(100%,100%,100%);fill-opacity:1;" d="M 91.9375 26.226562 L 76.597656 26.226562 L 89.007812 37.648438 Z M 91.9375 26.226562 "/>
<path style=" stroke:none;fill-rule:nonzero;fill:rgb(100%,100%,100%);fill-opacity:1;" d="M 95.214844 31.9375 L 90.472656 13.457031 L 85.734375 31.9375 Z M 95.214844 31.9375 "/>
<path style=" stroke:none;fill-rule:nonzero;fill:rgb(100%,100%,100%);fill-opacity:1;" d="M 151.621094 37.648438 L 164.035156 26.226562 L 148.691406 26.226562 Z M 151.621094 37.648438 "/>
<path style=" stroke:none;fill-rule:nonzero;fill:rgb(100%,100%,100%);fill-opacity:1;" d="M 146.324219 35.46875 L 158.734375 46.890625 L 153.992188 28.410156 Z M 146.324219 35.46875 "/>
<path style=" stroke:none;fill-rule:nonzero;fill:rgb(100%,100%,100%);fill-opacity:1;" d="M 146.324219 28.410156 L 141.582031 46.890625 L 153.992188 35.46875 Z M 146.324219 28.410156 "/>
<path style=" stroke:none;fill-rule:nonzero;fill:rgb(100%,100%,100%);fill-opacity:1;" d="M 151.621094 26.226562 L 136.28125 26.226562 L 148.691406 37.648438 Z M 151.621094 26.226562 "/>
<path style=" stroke:none;fill-rule:nonzero;fill:rgb(100%,100%,100%);fill-opacity:1;" d="M 154.898438 31.9375 L 150.15625 13.457031 L 145.417969 31.9375 Z M 154.898438 31.9375 "/>
<path style=" stroke:none;fill-rule:nonzero;fill:rgb(100%,100%,100%);fill-opacity:1;" d="M 211.308594 37.648438 L 223.71875 26.226562 L 208.378906 26.226562 Z M 211.308594 37.648438 "/>
<path style=" stroke:none;fill-rule:nonzero;fill:rgb(100%,100%,100%);fill-opacity:1;" d="M 206.007812 35.46875 L 218.417969 46.890625 L 213.675781 28.410156 Z M 206.007812 35.46875 "/>
<path style=" stroke:none;fill-rule:nonzero;fill:rgb(100%,100%,100%);fill-opacity:1;" d="M 206.007812 28.410156 L 201.265625 46.890625 L 213.675781 35.46875 Z M 206.007812 28.410156 "/>
<path style=" stroke:none;fill-rule:nonzero;fill:rgb(100%,100%,100%);fill-opacity:1;" d="M 211.308594 26.226562 L 195.964844 26.226562 L 208.378906 37.648438 Z M 211.308594 26.226562 "/>
<path style=" stroke:none;fill-rule:nonzero;fill:rgb(100%,100%,100%);fill-opacity:1;" d="M 214.582031 31.9375 L 209.84375 13.457031 L 205.101562 31.9375 Z M 214.582031 31.9375 "/>
<path style=" stroke:none;fill-rule:nonzero;fill:rgb(100%,100%,100%);fill-opacity:1;" d="M 270.992188 37.648438 L 283.402344 26.226562 L 268.0625 26.226562 Z M 270.992188 37.648438 "/>
<path style=" stroke:none;fill-rule:nonzero;fill:rgb(100%,100%,100%);fill-opacity:1;" d="M 265.691406 35.46875 L 278.101562 46.890625 L 273.363281 28.410156 Z M 265.691406 35.46875 "/>
<path style=" stroke:none;fill-rule:nonzero;fill:rgb(100%,100%,100%);fill-opacity:1;" d="M 265.691406 28.410156 L 260.949219 46.890625 L 273.363281 35.46875 Z M 265.691406 28.410156 "/>
<path style=" stroke:none;fill-rule:nonzero;fill:rgb(100%,100%,100%);fill-opacity:1;" d="M 270.992188 26.226562 L 255.652344 26.226562 L 268.0625 37.648438 Z M 270.992188 26.226562 "/>
<path style=" stroke:none;fill-rule:nonzero;fill:rgb(100%,100%,100%);fill-opacity:1;" d="M 274.265625 31.9375 L 269.527344 13.457031 L 264.785156 31.9375 Z M 274.265625 31.9375 "/>
<path style=" stroke:none;fill-rule:nonzero;fill:rgb(100%,100%,100%);fill-opacity:1;" d="M 330.675781 37.648438 L 343.085938 26.226562 L 327.746094 26.226562 Z M 330.675781 37.648438 "/>
<path style=" stroke:none;fill-rule:nonzero;fill:rgb(100%,100%,100%);fill-opacity:1;" d="M 325.375 35.46875 L 337.785156 46.890625 L 333.046875 28.410156 Z M 325.375 35.46875 "/>
<path style=" stroke:none;fill-rule:nonzero;fill:rgb(100%,100%,100%);fill-opacity:1;" d="M 325.375 28.410156 L 320.636719 46.890625 L 333.046875 35.46875 Z M 325.375 28.410156 "/>
<path style=" stroke:none;fill-rule:nonzero;fill:rgb(100%,100%,100%);fill-opacity:1;" d="M 330.675781 26.226562 L 315.335938 26.226562 L 327.746094 37.648438 Z M 330.675781 26.226562 "/>
<path style=" stroke:none;fill-rule:nonzero;fill:rgb(100%,100%,100%);fill-opacity:1;" d="M 333.949219 31.9375 L 329.210938 13.457031 L 324.46875 31.9375 Z M 333.949219 31.9375 "/>
<path style=" stroke:none;fill-rule:nonzero;fill:rgb(100%,100%,100%);fill-opacity:1;" d="M 62.097656 70.050781 L 74.507812 58.628906 L 59.167969 58.628906 Z M 62.097656 70.050781 "/>
<path style=" stroke:none;fill-rule:nonzero;fill:rgb(100%,100%,100%);fill-opacity:1;" d="M 56.796875 67.867188 L 69.207031 79.289062 L 64.464844 60.808594 Z M 56.796875 67.867188 "/>
<path style=" stroke:none;fill-rule:nonzero;fill:rgb(100%,100%,100%);fill-opacity:1;" d="M 56.796875 60.808594 L 52.054688 79.289062 L 64.464844 67.867188 Z M 56.796875 60.808594 "/>
<path style=" stroke:none;fill-rule:nonzero;fill:rgb(100%,100%,100%);fill-opacity:1;" d="M 62.097656 58.628906 L 46.757812 58.628906 L 59.167969 70.050781 Z M 62.097656 58.628906 "/>
<path style=" stroke:none;fill-rule:nonzero;fill:rgb(100%,100%,100%);fill-opacity:1;" d="M 65.371094 64.339844 L 60.632812 45.859375 L 55.890625 64.339844 Z M 65.371094 64.339844 "/>
<path style=" stroke:none;fill-rule:nonzero;fill:rgb(100%,100%,100%);fill-opacity:1;" d="M 121.78125 70.050781 L 134.191406 58.628906 L 118.851562 58.628906 Z M 121.78125 70.050781 "/>
<path style=" stroke:none;fill-rule:nonzero;fill:rgb(100%,100%,100%);fill-opacity:1;" d="M 116.480469 67.867188 L 128.890625 79.289062 L 124.152344 60.808594 Z M 116.480469 67.867188 "/>
<path style=" stroke:none;fill-rule:nonzero;fill:rgb(100%,100%,100%);fill-opacity:1;" d="M 116.480469 60.808594 L 111.742188 79.289062 L 124.152344 67.867188 Z M 116.480469 60.808594 "/>
<path style=" stroke:none;fill-rule:nonzero;fill:rgb(100%,100%,100%);fill-opacity:1;" d="M 121.78125 58.628906 L 106.441406 58.628906 L 118.851562 70.050781 Z M 121.78125 58.628906 "/>
<path style=" stroke:none;fill-rule:nonzero;fill:rgb(100%,100%,100%);fill-opacity:1;" d="M 125.054688 64.339844 L 120.316406 45.859375 L 115.574219 64.339844 Z M 125.054688 64.339844 "/>
<path style=" stroke:none;fill-rule:nonzero;fill:rgb(100%,100%,100%);fill-opacity:1;" d="M 181.464844 70.050781 L 193.875 58.628906 L 178.535156 58.628906 Z M 181.464844 70.050781 "/>
<path style=" stroke:none;fill-rule:nonzero;fill:rgb(100%,100%,100%);fill-opacity:1;" d="M 176.164062 67.867188 L 188.574219 79.289062 L 183.835938 60.808594 Z M 176.164062 67.867188 "/>
<path style=" stroke:none;fill-rule:nonzero;fill:rgb(100%,100%,100%);fill-opacity:1;" d="M 176.164062 60.808594 L 171.425781 79.289062 L 183.835938 67.867188 Z M 176.164062 60.808594 "/>
<path style=" stroke:none;fill-rule:nonzero;fill:rgb(100%,100%,100%);fill-opacity:1;" d="M 181.464844 58.628906 L 166.125 58.628906 L 178.535156 70.050781 Z M 181.464844 58.628906 "/>
<path style=" stroke:none;fill-rule:nonzero;fill:rgb(100%,100%,100%);fill-opacity:1;" d="M 184.742188 64.339844 L 180 45.859375 L 175.257812 64.339844 Z M 184.742188 64.339844 "/>
<path style=" stroke:none;fill-rule:nonzero;fill:rgb(100%,100%,100%);fill-opacity:1;" d="M 241.148438 70.050781 L 253.558594 58.628906 L 238.21875 58.628906 Z M 241.148438 70.050781 "/>
<path style=" stroke:none;fill-rule:nonzero;fill:rgb(100%,100%,100%);fill-opacity:1;" d="M 235.847656 67.867188 L 248.257812 79.289062 L 243.519531 60.808594 Z M 235.847656 67.867188 "/>
<path style=" stroke:none;fill-rule:nonzero;fill:rgb(100%,100%,100%);fill-opacity:1;" d="M 235.847656 60.808594 L 231.109375 79.289062 L 243.519531 67.867188 Z M 235.847656 60.808594 "/>
<path style=" stroke:none;fill-rule:nonzero;fill:rgb(100%,100%,100%);fill-opacity:1;" d="M 241.148438 58.628906 L 225.808594 58.628906 L 238.21875 70.050781 Z M 241.148438 58.628906 "/>
<path style=" stroke:none;fill-rule:nonzero;fill:rgb(100%,100%,100%);fill-opacity:1;" d="M 244.425781 64.339844 L 239.683594 45.859375 L 234.945312 64.339844 Z M 244.425781 64.339844 "/>
<path style=" stroke:none;fill-rule:nonzero;fill:rgb(100%,100%,100%);fill-opacity:1;" d="M 300.832031 70.050781 L 313.242188 58.628906 L 297.902344 58.628906 Z M 300.832031 70.050781 "/>
<path style=" stroke:none;fill-rule:nonzero;fill:rgb(100%,100%,100%);fill-opacity:1;" d="M 295.535156 67.867188 L 307.945312 79.289062 L 303.203125 60.808594 Z M 295.535156 67.867188 "/>
<path style=" stroke:none;fill-rule:nonzero;fill:rgb(100%,100%,100%);fill-opacity:1;" d="M 295.535156 60.808594 L 290.792969 79.289062 L 303.203125 67.867188 Z M 295.535156 60.808594 "/>
<path style=" stroke:none;fill-rule:nonzero;fill:rgb(100%,100%,100%);fill-opacity:1;" d="M 300.832031 58.628906 L 285.492188 58.628906 L 297.902344 70.050781 Z M 300.832031 58.628906 "/>
<path style=" stroke:none;fill-rule:nonzero;fill:rgb(100%,100%,100%);fill-opacity:1;" d="M 304.109375 64.339844 L 299.367188 45.859375 L 294.628906 64.339844 Z M 304.109375 64.339844 "/>
<path style=" stroke:none;fill-rule:nonzero;fill:rgb(100%,100%,100%);fill-opacity:1;" d="M 32.253906 102.449219 L 44.664062 91.027344 L 29.324219 91.027344 Z M 32.253906 102.449219 "/>
<path style=" stroke:none;fill-rule:nonzero;fill:rgb(100%,100%,100%);fill-opacity:1;" d="M 26.953125 100.269531 L 39.363281 111.6875 L 34.625 93.210938 Z M 26.953125 100.269531 "/>
<path style=" stroke:none;fill-rule:nonzero;fill:rgb(100%,100%,100%);fill-opacity:1;" d="M 26.953125 93.210938 L 22.214844 111.6875 L 34.625 100.269531 Z M 26.953125 93.210938 "/>
<path style=" stroke:none;fill-rule:nonzero;fill:rgb(100%,100%,100%);fill-opacity:1;" d="M 32.253906 91.027344 L 16.914062 91.027344 L 29.324219 102.449219 Z M 32.253906 91.027344 "/>
<path style=" stroke:none;fill-rule:nonzero;fill:rgb(100%,100%,100%);fill-opacity:1;" d="M 35.53125 96.738281 L 30.789062 78.257812 L 26.050781 96.738281 Z M 35.53125 96.738281 "/>
<path style=" stroke:none;fill-rule:nonzero;fill:rgb(100%,100%,100%);fill-opacity:1;" d="M 91.9375 102.449219 L 104.347656 91.027344 L 89.007812 91.027344 Z M 91.9375 102.449219 "/>
<path style=" stroke:none;fill-rule:nonzero;fill:rgb(100%,100%,100%);fill-opacity:1;" d="M 86.636719 100.269531 L 99.050781 111.6875 L 94.308594 93.210938 Z M 86.636719 100.269531 "/>
<path style=" stroke:none;fill-rule:nonzero;fill:rgb(100%,100%,100%);fill-opacity:1;" d="M 86.636719 93.210938 L 81.898438 111.6875 L 94.308594 100.269531 Z M 86.636719 93.210938 "/>
<path style=" stroke:none;fill-rule:nonzero;fill:rgb(100%,100%,100%);fill-opacity:1;" d="M 91.9375 91.027344 L 76.597656 91.027344 L 89.007812 102.449219 Z M 91.9375 91.027344 "/>
<path style=" stroke:none;fill-rule:nonzero;fill:rgb(100%,100%,100%);fill-opacity:1;" d="M 95.214844 96.738281 L 90.472656 78.257812 L 85.734375 96.738281 Z M 95.214844 96.738281 "/>
<path style=" stroke:none;fill-rule:nonzero;fill:rgb(100%,100%,100%);fill-opacity:1;" d="M 151.621094 102.449219 L 164.035156 91.027344 L 148.691406 91.027344 Z M 151.621094 102.449219 "/>
<path style=" stroke:none;fill-rule:nonzero;fill:rgb(100%,100%,100%);fill-opacity:1;" d="M 146.324219 100.269531 L 158.734375 111.6875 L 153.992188 93.210938 Z M 146.324219 100.269531 "/>
<path style=" stroke:none;fill-rule:nonzero;fill:rgb(100%,100%,100%);fill-opacity:1;" d="M 146.324219 93.210938 L 141.582031 111.6875 L 153.992188 100.269531 Z M 146.324219 93.210938 "/>
<path style=" stroke:none;fill-rule:nonzero;fill:rgb(100%,100%,100%);fill-opacity:1;" d="M 151.621094 91.027344 L 136.28125 91.027344 L 148.691406 102.449219 Z M 151.621094 91.027344 "/>
<path style=" stroke:none;fill-rule:nonzero;fill:rgb(100%,100%,100%);fill-opacity:1;" d="M 154.898438 96.738281 L 150.15625 78.257812 L 145.417969 96.738281 Z M 154.898438 96.738281 "/>
<path style=" stroke:none;fill-rule:nonzero;fill:rgb(100%,100%,100%);fill-opacity:1;" d="M 211.308594 102.449219 L 223.71875 91.027344 L 208.378906 91.027344 Z M 211.308594 102.449219 "/>
<path style=" stroke:none;fill-rule:nonzero;fill:rgb(100%,100%,100%);fill-opacity:1;" d="M 206.007812 100.269531 L 218.417969 111.6875 L 213.675781 93.210938 Z M 206.007812 100.269531 "/>
<path style=" stroke:none;fill-rule:nonzero;fill:rgb(100%,100%,100%);fill-opacity:1;" d="M 206.007812 93.210938 L 201.265625 111.6875 L 213.675781 100.269531 Z M 206.007812 93.210938 "/>
<path style=" stroke:none;fill-rule:nonzero;fill:rgb(100%,100%,100%);fill-opacity:1;" d="M 211.308594 91.027344 L 195.964844 91.027344 L 208.378906 102.449219 Z M 211.308594 91.027344 "/>
<path style=" stroke:none;fill-rule:nonzero;fill:rgb(100%,100%,100%);fill-opacity:1;" d="M 214.582031 96.738281 L 209.84375 78.257812 L 205.101562 96.738281 Z M 214.582031 96.738281 "/>
<path style=" stroke:none;fill-rule:nonzero;fill:rgb(100%,100%,100%);fill-opacity:1;" d="M 270.992188 102.449219 L 283.402344 91.027344 L 268.0625 91.027344 Z M 270.992188 102.449219 "/>
<path style=" stroke:none;fill-rule:nonzero;fill:rgb(100%,100%,100%);fill-opacity:1;" d="M 265.691406 100.269531 L 278.101562 111.6875 L 273.363281 93.210938 Z M 265.691406 100.269531 "/>
<path style=" stroke:none;fill-rule:nonzero;fill:rgb(100%,100%,100%);fill-opacity:1;" d="M 265.691406 93.210938 L 260.949219 111.6875 L 273.363281 100.269531 Z M 265.691406 93.210938 "/>
<path style=" stroke:none;fill-rule:nonzero;fill:rgb(100%,100%,100%);fill-opacity:1;" d="M 270.992188 91.027344 L 255.652344 91.027344 L 268.0625 102.449219 Z M 270.992188 91.027344 "/>
<path style=" stroke:none;fill-rule:nonzero;fill:rgb(100%,100%,100%);fill-opacity:1;" d="M 274.265625 96.738281 L 269.527344 78.257812 L 264.785156 96.738281 Z M 274.265625 96.738281 "/>
<path style=" stroke:none;fill-rule:nonzero;fill:rgb(100%,100%,100%);fill-opacity:1;" d="M 330.675781 102.449219 L 343.085938 91.027344 L 327.746094 91.027344 Z M 330.675781 102.449219 "/>
<path style=" stroke:none;fill-rule:nonzero;fill:rgb(100%,100%,100%);fill-opacity:1;" d="M 325.375 100.269531 L 337.785156 111.6875 L 333.046875 93.210938 Z M 325.375 100.269531 "/>
<path style=" stroke:none;fill-rule:nonzero;fill:rgb(100%,100%,100%);fill-opacity:1;" d="M 325.375 93.210938 L 320.636719 111.6875 L 333.046875 100.269531 Z M 325.375 93.210938 "/>
<path style=" stroke:none;fill-rule:nonzero;fill:rgb(100%,100%,100%);fill-opacity:1;" d="M 330.675781 91.027344 L 315.335938 91.027344 L 327.746094 102.449219 Z M 330.675781 91.027344 "/>
<path style=" stroke:none;fill-rule:nonzero;fill:rgb(100%,100%,100%);fill-opacity:1;" d="M 333.949219 96.738281 L 329.210938 78.257812 L 324.46875 96.738281 Z M 333.949219 96.738281 "/>
<path style=" stroke:none;fill-rule:nonzero;fill:rgb(100%,100%,100%);fill-opacity:1;" d="M 62.097656 134.847656 L 74.507812 123.429688 L 59.167969 123.429688 Z M 62.097656 134.847656 "/>
<path style=" stroke:none;fill-rule:nonzero;fill:rgb(100%,100%,100%);fill-opacity:1;" d="M 56.796875 132.667969 L 69.207031 144.089844 L 64.464844 125.609375 Z M 56.796875 132.667969 "/>
<path style=" stroke:none;fill-rule:nonzero;fill:rgb(100%,100%,100%);fill-opacity:1;" d="M 56.796875 125.609375 L 52.054688 144.089844 L 64.464844 132.667969 Z M 56.796875 125.609375 "/>
<path style=" stroke:none;fill-rule:nonzero;fill:rgb(100%,100%,100%);fill-opacity:1;" d="M 62.097656 123.429688 L 46.757812 123.429688 L 59.167969 134.847656 Z M 62.097656 123.429688 "/>
<path style=" stroke:none;fill-rule:nonzero;fill:rgb(100%,100%,100%);fill-opacity:1;" d="M 65.371094 129.136719 L 60.632812 110.660156 L 55.890625 129.136719 Z M 65.371094 129.136719 "/>
<path style=" stroke:none;fill-rule:nonzero;fill:rgb(100%,100%,100%);fill-opacity:1;" d="M 121.78125 134.847656 L 134.191406 123.429688 L 118.851562 123.429688 Z M 121.78125 134.847656 "/>
<path style=" stroke:none;fill-rule:nonzero;fill:rgb(100%,100%,100%);fill-opacity:1;" d="M 116.480469 132.667969 L 128.890625 144.089844 L 124.152344 125.609375 Z M 116.480469 132.667969 "/>
<path style=" stroke:none;fill-rule:nonzero;fill:rgb(100%,100%,100%);fill-opacity:1;" d="M 116.480469 125.609375 L 111.742188 144.089844 L 124.152344 132.667969 Z M 116.480469 125.609375 "/>
<path style=" stroke:none;fill-rule:nonzero;fill:rgb(100%,100%,100%);fill-opacity:1;" d="M 121.78125 123.429688 L 106.441406 123.429688 L 118.851562 134.847656 Z M 121.78125 123.429688 "/>
<path style=" stroke:none;fill-rule:nonzero;fill:rgb(100%,100%,100%);fill-opacity:1;" d="M 125.054688 129.136719 L 120.316406 110.660156 L 115.574219 129.136719 Z M 125.054688 129.136719 "/>
<path style=" stroke:none;fill-rule:nonzero;fill:rgb(100%,100%,100%);fill-opacity:1;" d="M 181.464844 134.847656 L 193.875 123.429688 L 178.535156 123.429688 Z M 181.464844 134.847656 "/>
<path style=" stroke:none;fill-rule:nonzero;fill:rgb(100%,100%,100%);fill-opacity:1;" d="M 176.164062 132.667969 L 188.574219 144.089844 L 183.835938 125.609375 Z M 176.164062 132.667969 "/>
<path style=" stroke:none;fill-rule:nonzero;fill:rgb(100%,100%,100%);fill-opacity:1;" d="M 176.164062 125.609375 L 171.425781 144.089844 L 183.835938 132.667969 Z M 176.164062 125.609375 "/>
<path style=" stroke:none;fill-rule:nonzero;fill:rgb(100%,100%,100%);fill-opacity:1;" d="M 181.464844 123.429688 L 166.125 123.429688 L 178.535156 134.847656 Z M 181.464844 123.429688 "/>
<path style=" stroke:none;fill-rule:nonzero;fill:rgb(100%,100%,100%);fill-opacity:1;" d="M 184.742188 129.136719 L 180 110.660156 L 175.257812 129.136719 Z M 184.742188 129.136719 "/>
<path style=" stroke:none;fill-rule:nonzero;fill:rgb(100%,100%,100%);fill-opacity:1;" d="M 241.148438 134.847656 L 253.558594 123.429688 L 238.21875 123.429688 Z M 241.148438 134.847656 "/>
<path style=" stroke:none;fill-rule:nonzero;fill:rgb(100%,100%,100%);fill-opacity:1;" d="M 235.847656 132.667969 L 248.257812 144.089844 L 243.519531 125.609375 Z M 235.847656 132.667969 "/>
<path style=" stroke:none;fill-rule:nonzero;fill:rgb(100%,100%,100%);fill-opacity:1;" d="M 235.847656 125.609375 L 231.109375 144.089844 L 243.519531 132.667969 Z M 235.847656 125.609375 "/>
<path style=" stroke:none;fill-rule:nonzero;fill:rgb(100%,100%,100%);fill-opacity:1;" d="M 241.148438 123.429688 L 225.808594 123.429688 L 238.21875 134.847656 Z M 241.148438 123.429688 "/>
<path style=" stroke:none;fill-rule:nonzero;fill:rgb(100%,100%,100%);fill-opacity:1;" d="M 244.425781 129.136719 L 239.683594 110.660156 L 234.945312 129.136719 Z M 244.425781 129.136719 "/>
<path style=" stroke:none;fill-rule:nonzero;fill:rgb(100%,100%,100%);fill-opacity:1;" d="M 300.832031 134.847656 L 313.242188 123.429688 L 297.902344 123.429688 Z M 300.832031 134.847656 "/>
<path style=" stroke:none;fill-rule:nonzero;fill:rgb(100%,100%,100%);fill-opacity:1;" d="M 295.535156 132.667969 L 307.945312 144.089844 L 303.203125 125.609375 Z M 295.535156 132.667969 "/>
<path style=" stroke:none;fill-rule:nonzero;fill:rgb(100%,100%,100%);fill-opacity:1;" d="M 295.535156 125.609375 L 290.792969 144.089844 L 303.203125 132.667969 Z M 295.535156 125.609375 "/>
<path style=" stroke:none;fill-rule:nonzero;fill:rgb(100%,100%,100%);fill-opacity:1;" d="M 300.832031 123.429688 L 285.492188 123.429688 L 297.902344 134.847656 Z M 300.832031 123.429688 "/>
<path style=" stroke:none;fill-rule:nonzero;fill:rgb(100%,100%,100%);fill-opacity:1;" d="M 304.109375 129.136719 L 299.367188 110.660156 L 294.628906 129.136719 Z M 304.109375 129.136719 "/>
<path style=" stroke:none;fill-rule:nonzero;fill:rgb(100%,100%,100%);fill-opacity:1;" d="M 32.253906 167.25 L 44.664062 155.828125 L 29.324219 155.828125 Z M 32.253906 167.25 "/>
<path style=" stroke:none;fill-rule:nonzero;fill:rgb(100%,100%,100%);fill-opacity:1;" d="M 26.953125 165.066406 L 39.363281 176.488281 L 34.625 158.007812 Z M 26.953125 165.066406 "/>
<path style=" stroke:none;fill-rule:nonzero;fill:rgb(100%,100%,100%);fill-opacity:1;" d="M 26.953125 158.007812 L 22.214844 176.488281 L 34.625 165.066406 Z M 26.953125 158.007812 "/>
<path style=" stroke:none;fill-rule:nonzero;fill:rgb(100%,100%,100%);fill-opacity:1;" d="M 32.253906 155.828125 L 16.914062 155.828125 L 29.324219 167.25 Z M 32.253906 155.828125 "/>
<path style=" stroke:none;fill-rule:nonzero;fill:rgb(100%,100%,100%);fill-opacity:1;" d="M 35.53125 161.539062 L 30.789062 143.058594 L 26.050781 161.539062 Z M 35.53125 161.539062 "/>
<path style=" stroke:none;fill-rule:nonzero;fill:rgb(100%,100%,100%);fill-opacity:1;" d="M 91.9375 167.25 L 104.347656 155.828125 L 89.007812 155.828125 Z M 91.9375 167.25 "/>
<path style=" stroke:none;fill-rule:nonzero;fill:rgb(100%,100%,100%);fill-opacity:1;" d="M 86.636719 165.066406 L 99.050781 176.488281 L 94.308594 158.007812 Z M 86.636719 165.066406 "/>
<path style=" stroke:none;fill-rule:nonzero;fill:rgb(100%,100%,100%);fill-opacity:1;" d="M 86.636719 158.007812 L 81.898438 176.488281 L 94.308594 165.066406 Z M 86.636719 158.007812 "/>
<path style=" stroke:none;fill-rule:nonzero;fill:rgb(100%,100%,100%);fill-opacity:1;" d="M 91.9375 155.828125 L 76.597656 155.828125 L 89.007812 167.25 Z M 91.9375 155.828125 "/>
<path style=" stroke:none;fill-rule:nonzero;fill:rgb(100%,100%,100%);fill-opacity:1;" d="M 95.214844 161.539062 L 90.472656 143.058594 L 85.734375 161.539062 Z M 95.214844 161.539062 "/>
<path style=" stroke:none;fill-rule:nonzero;fill:rgb(100%,100%,100%);fill-opacity:1;" d="M 151.621094 167.25 L 164.035156 155.828125 L 148.691406 155.828125 Z M 151.621094 167.25 "/>
<path style=" stroke:none;fill-rule:nonzero;fill:rgb(100%,100%,100%);fill-opacity:1;" d="M 146.324219 165.066406 L 158.734375 176.488281 L 153.992188 158.007812 Z M 146.324219 165.066406 "/>
<path style=" stroke:none;fill-rule:nonzero;fill:rgb(100%,100%,100%);fill-opacity:1;" d="M 146.324219 158.007812 L 141.582031 176.488281 L 153.992188 165.066406 Z M 146.324219 158.007812 "/>
<path style=" stroke:none;fill-rule:nonzero;fill:rgb(100%,100%,100%);fill-opacity:1;" d="M 151.621094 155.828125 L 136.28125 155.828125 L 148.691406 167.25 Z M 151.621094 155.828125 "/>
<path style=" stroke:none;fill-rule:nonzero;fill:rgb(100%,100%,100%);fill-opacity:1;" d="M 154.898438 161.539062 L 150.15625 143.058594 L 145.417969 161.539062 Z M 154.898438 161.539062 "/>
<path style=" stroke:none;fill-rule:nonzero;fill:rgb(100%,100%,100%);fill-opacity:1;" d="M 211.308594 167.25 L 223.71875 155.828125 L 208.378906 155.828125 Z M 211.308594 167.25 "/>
<path style=" stroke:none;fill-rule:nonzero;fill:rgb(100%,100%,100%);fill-opacity:1;" d="M 206.007812 165.066406 L 218.417969 176.488281 L 213.675781 158.007812 Z M 206.007812 165.066406 "/>
<path style=" stroke:none;fill-rule:nonzero;fill:rgb(100%,100%,100%);fill-opacity:1;" d="M 206.007812 158.007812 L 201.265625 176.488281 L 213.675781 165.066406 Z M 206.007812 158.007812 "/>
<path style=" stroke:none;fill-rule:nonzero;fill:rgb(100%,100%,100%);fill-opacity:1;" d="M 211.308594 155.828125 L 195.964844 155.828125 L 208.378906 167.25 Z M 211.308594 155.828125 "/>
<path style=" stroke:none;fill-rule:nonzero;fill:rgb(100%,100%,100%);fill-opacity:1;" d="M 214.582031 161.539062 L 209.84375 143.058594 L 205.101562 161.539062 Z M 214.582031 161.539062 "/>
<path style=" stroke:none;fill-rule:nonzero;fill:rgb(100%,100%,100%);fill-opacity:1;" d="M 270.992188 167.25 L 283.402344 155.828125 L 268.0625 155.828125 Z M 270.992188 167.25 "/>
<path style=" stroke:none;fill-rule:nonzero;fill:rgb(100%,100%,100%);fill-opacity:1;" d="M 265.691406 165.066406 L 278.101562 176.488281 L 273.363281 158.007812 Z M 265.691406 165.066406 "/>
<path style=" stroke:none;fill-rule:nonzero;fill:rgb(100%,100%,100%);fill-opacity:1;" d="M 265.691406 158.007812 L 260.949219 176.488281 L 273.363281 165.066406 Z M 265.691406 158.007812 "/>
<path style=" stroke:none;fill-rule:nonzero;fill:rgb(100%,100%,100%);fill-opacity:1;" d="M 270.992188 155.828125 L 255.652344 155.828125 L 268.0625 167.25 Z M 270.992188 155.828125 "/>
<path style=" stroke:none;fill-rule:nonzero;fill:rgb(100%,100%,100%);fill-opacity:1;" d="M 274.265625 161.539062 L 269.527344 143.058594 L 264.785156 161.539062 Z M 274.265625 161.539062 "/>
<path style=" stroke:none;fill-rule:nonzero;fill:rgb(100%,100%,100%);fill-opacity:1;" d="M 330.675781 167.25 L 343.085938 155.828125 L 327.746094 155.828125 Z M 330.675781 167.25 "/>
<path style=" stroke:none;fill-rule:nonzero;fill:rgb(100%,100%,100%);fill-opacity:1;" d="M 325.375 165.066406 L 337.785156 176.488281 L 333.046875 158.007812 Z M 325.375 165.066406 "/>
<path style=" stroke:none;fill-rule:nonzero;fill:rgb(100%,100%,100%);fill-opacity:1;" d="M 325.375 158.007812 L 320.636719 176.488281 L 333.046875 165.066406 Z M 325.375 158.007812 "/>
<path style=" stroke:none;fill-rule:nonzero;fill:rgb(100%,100%,100%);fill-opacity:1;" d="M 330.675781 155.828125 L 315.335938 155.828125 L 327.746094 167.25 Z M 330.675781 155.828125 "/>
<path style=" stroke:none;fill-rule:nonzero;fill:rgb(100%,100%,100%);fill-opacity:1;" d="M 333.949219 161.539062 L 329.210938 143.058594 L 324.46875 161.539062 Z M 333.949219 161.539062 "/>
<path style=" stroke:none;fill-rule:nonzero;fill:rgb(100%,100%,100%);fill-opacity:1;" d="M 62.097656 199.648438 L 74.507812 188.226562 L 59.167969 188.226562 Z M 62.097656 199.648438 "/>
<path style=" stroke:none;fill-rule:nonzero;fill:rgb(100%,100%,100%);fill-opacity:1;" d="M 56.796875 197.46875 L 69.207031 208.890625 L 64.464844 190.410156 Z M 56.796875 197.46875 "/>
<path style=" stroke:none;fill-rule:nonzero;fill:rgb(100%,100%,100%);fill-opacity:1;" d="M 56.796875 190.410156 L 52.054688 208.890625 L 64.464844 197.46875 Z M 56.796875 190.410156 "/>
<path style=" stroke:none;fill-rule:nonzero;fill:rgb(100%,100%,100%);fill-opacity:1;" d="M 62.097656 188.226562 L 46.757812 188.226562 L 59.167969 199.648438 Z M 62.097656 188.226562 "/>
<path style=" stroke:none;fill-rule:nonzero;fill:rgb(100%,100%,100%);fill-opacity:1;" d="M 65.371094 193.9375 L 60.632812 175.457031 L 55.890625 193.9375 Z M 65.371094 193.9375 "/>
<path style=" stroke:none;fill-rule:nonzero;fill:rgb(100%,100%,100%);fill-opacity:1;" d="M 121.78125 199.648438 L 134.191406 188.226562 L 118.851562 188.226562 Z M 121.78125 199.648438 "/>
<path style=" stroke:none;fill-rule:nonzero;fill:rgb(100%,100%,100%);fill-opacity:1;" d="M 116.480469 197.46875 L 128.890625 208.890625 L 124.152344 190.410156 Z M 116.480469 197.46875 "/>
<path style=" stroke:none;fill-rule:nonzero;fill:rgb(100%,100%,100%);fill-opacity:1;" d="M 116.480469 190.410156 L 111.742188 208.890625 L 124.152344 197.46875 Z M 116.480469 190.410156 "/>
<path style=" stroke:none;fill-rule:nonzero;fill:rgb(100%,100%,100%);fill-opacity:1;" d="M 121.78125 188.226562 L 106.441406 188.226562 L 118.851562 199.648438 Z M 121.78125 188.226562 "/>
<path style=" stroke:none;fill-rule:nonzero;fill:rgb(100%,100%,100%);fill-opacity:1;" d="M 125.054688 193.9375 L 120.316406 175.457031 L 115.574219 193.9375 Z M 125.054688 193.9375 "/>
<path style=" stroke:none;fill-rule:nonzero;fill:rgb(100%,100%,100%);fill-opacity:1;" d="M 181.464844 199.648438 L 193.875 188.226562 L 178.535156 188.226562 Z M 181.464844 199.648438 "/>
<path style=" stroke:none;fill-rule:nonzero;fill:rgb(100%,100%,100%);fill-opacity:1;" d="M 176.164062 197.46875 L 188.574219 208.890625 L 183.835938 190.410156 Z M 176.164062 197.46875 "/>
<path style=" stroke:none;fill-rule:nonzero;fill:rgb(100%,100%,100%);fill-opacity:1;" d="M 176.164062 190.410156 L 171.425781 208.890625 L 183.835938 197.46875 Z M 176.164062 190.410156 "/>
<path style=" stroke:none;fill-rule:nonzero;fill:rgb(100%,100%,100%);fill-opacity:1;" d="M 181.464844 188.226562 L 166.125 188.226562 L 178.535156 199.648438 Z M 181.464844 188.226562 "/>
<path style=" stroke:none;fill-rule:nonzero;fill:rgb(100%,100%,100%);fill-opacity:1;" d="M 184.742188 193.9375 L 180 175.457031 L 175.257812 193.9375 Z M 184.742188 193.9375 "/>
<path style=" stroke:none;fill-rule:nonzero;fill:rgb(100%,100%,100%);fill-opacity:1;" d="M 241.148438 199.648438 L 253.558594 188.226562 L 238.21875 188.226562 Z M 241.148438 199.648438 "/>
<path style=" stroke:none;fill-rule:nonzero;fill:rgb(100%,100%,100%);fill-opacity:1;" d="M 235.847656 197.46875 L 248.257812 208.890625 L 243.519531 190.410156 Z M 235.847656 197.46875 "/>
<path style=" stroke:none;fill-rule:nonzero;fill:rgb(100%,100%,100%);fill-opacity:1;" d="M 235.847656 190.410156 L 231.109375 208.890625 L 243.519531 197.46875 Z M 235.847656 190.410156 "/>
<path style=" stroke:none;fill-rule:nonzero;fill:rgb(100%,100%,100%);fill-opacity:1;" d="M 241.148438 188.226562 L 225.808594 188.226562 L 238.21875 199.648438 Z M 241.148438 188.226562 "/>
<path style=" stroke:none;fill-rule:nonzero;fill:rgb(100%,100%,100%);fill-opacity:1;" d="M 244.425781 193.9375 L 239.683594 175.457031 L 234.945312 193.9375 Z M 244.425781 193.9375 "/>
<path style=" stroke:none;fill-rule:nonzero;fill:rgb(100%,100%,100%);fill-opacity:1;" d="M 300.832031 199.648438 L 313.242188 188.226562 L 297.902344 188.226562 Z M 300.832031 199.648438 "/>
<path style=" stroke:none;fill-rule:nonzero;fill:rgb(100%,100%,100%);fill-opacity:1;" d="M 295.535156 197.46875 L 307.945312 208.890625 L 303.203125 190.410156 Z M 295.535156 197.46875 "/>
<path style=" stroke:none;fill-rule:nonzero;fill:rgb(100%,100%,100%);fill-opacity:1;" d="M 295.535156 190.410156 L 290.792969 208.890625 L 303.203125 197.46875 Z M 295.535156 190.410156 "/>
<path style=" stroke:none;fill-rule:nonzero;fill:rgb(100%,100%,100%);fill-opacity:1;" d="M 300.832031 188.226562 L 285.492188 188.226562 L 297.902344 199.648438 Z M 300.832031 188.226562 "/>
<path style=" stroke:none;fill-rule:nonzero;fill:rgb(100%,100%,100%);fill-opacity:1;" d="M 304.109375 193.9375 L 299.367188 175.457031 L 294.628906 193.9375 Z M 304.109375 193.9375 "/>
<path style=" stroke:none;fill-rule:nonzero;fill:rgb(100%,100%,100%);fill-opacity:1;" d="M 32.253906 232.050781 L 44.664062 220.628906 L 29.324219 220.628906 Z M 32.253906 232.050781 "/>
<path style=" stroke:none;fill-rule:nonzero;fill:rgb(100%,100%,100%);fill-opacity:1;" d="M 26.953125 229.867188 L 39.363281 241.289062 L 34.625 222.808594 Z M 26.953125 229.867188 "/>
<path style=" stroke:none;fill-rule:nonzero;fill:rgb(100%,100%,100%);fill-opacity:1;" d="M 26.953125 222.808594 L 22.214844 241.289062 L 34.625 229.867188 Z M 26.953125 222.808594 "/>
<path style=" stroke:none;fill-rule:nonzero;fill:rgb(100%,100%,100%);fill-opacity:1;" d="M 32.253906 220.628906 L 16.914062 220.628906 L 29.324219 232.050781 Z M 32.253906 220.628906 "/>
<path style=" stroke:none;fill-rule:nonzero;fill:rgb(100%,100%,100%);fill-opacity:1;" d="M 35.53125 226.339844 L 30.789062 207.859375 L 26.050781 226.339844 Z M 35.53125 226.339844 "/>
<path style=" stroke:none;fill-rule:nonzero;fill:rgb(100%,100%,100%);fill-opacity:1;" d="M 91.9375 232.050781 L 104.347656 220.628906 L 89.007812 220.628906 Z M 91.9375 232.050781 "/>
<path style=" stroke:none;fill-rule:nonzero;fill:rgb(100%,100%,100%);fill-opacity:1;" d="M 86.636719 229.867188 L 99.050781 241.289062 L 94.308594 222.808594 Z M 86.636719 229.867188 "/>
<path style=" stroke:none;fill-rule:nonzero;fill:rgb(100%,100%,100%);fill-opacity:1;" d="M 86.636719 222.808594 L 81.898438 241.289062 L 94.308594 229.867188 Z M 86.636719 222.808594 "/>
<path style=" stroke:none;fill-rule:nonzero;fill:rgb(100%,100%,100%);fill-opacity:1;" d="M 91.9375 220.628906 L 76.597656 220.628906 L 89.007812 232.050781 Z M 91.9375 220.628906 "/>
<path style=" stroke:none;fill-rule:nonzero;fill:rgb(100%,100%,100%);fill-opacity:1;" d="M 95.214844 226.339844 L 90.472656 207.859375 L 85.734375 226.339844 Z M 95.214844 226.339844 "/>
<path style=" stroke:none;fill-rule:nonzero;fill:rgb(100%,100%,100%);fill-opacity:1;" d="M 151.621094 232.050781 L 164.035156 220.628906 L 148.691406 220.628906 Z M 151.621094 232.050781 "/>
<path style=" stroke:none;fill-rule:nonzero;fill:rgb(100%,100%,100%);fill-opacity:1;" d="M 146.324219 229.867188 L 158.734375 241.289062 L 153.992188 222.808594 Z M 146.324219 229.867188 "/>
<path style=" stroke:none;fill-rule:nonzero;fill:rgb(100%,100%,100%);fill-opacity:1;" d="M 146.324219 222.808594 L 141.582031 241.289062 L 153.992188 229.867188 Z M 146.324219 222.808594 "/>
<path style=" stroke:none;fill-rule:nonzero;fill:rgb(100%,100%,100%);fill-opacity:1;" d="M 151.621094 220.628906 L 136.28125 220.628906 L 148.691406 232.050781 Z M 151.621094 220.628906 "/>
<path style=" stroke:none;fill-rule:nonzero;fill:rgb(100%,100%,100%);fill-opacity:1;" d="M 154.898438 226.339844 L 150.15625 207.859375 L 145.417969 226.339844 Z M 154.898438 226.339844 "/>
<path style=" stroke:none;fill-rule:nonzero;fill:rgb(100%,100%,100%);fill-opacity:1;" d="M 211.308594 232.050781 L 223.71875 220.628906 L 208.378906 220.628906 Z M 211.308594 232.050781 "/>
<path style=" stroke:none;fill-rule:nonzero;fill:rgb(100%,100%,100%);fill-opacity:1;" d="M 206.007812 229.867188 L 218.417969 241.289062 L 213.675781 222.808594 Z M 206.007812 229.867188 "/>
<path style=" stroke:none;fill-rule:nonzero;fill:rgb(100%,100%,100%);fill-opacity:1;" d="M 206.007812 222.808594 L 201.265625 241.289062 L 213.675781 229.867188 Z M 206.007812 222.808594 "/>
<path style=" stroke:none;fill-rule:nonzero;fill:rgb(100%,100%,100%);fill-opacity:1;" d="M 211.308594 220.628906 L 195.964844 220.628906 L 208.378906 232.050781 Z M 211.308594 220.628906 "/>
<path style=" stroke:none;fill-rule:nonzero;fill:rgb(100%,100%,100%);fill-opacity:1;" d="M 214.582031 226.339844 L 209.84375 207.859375 L 205.101562 226.339844 Z M 214.582031 226.339844 "/>
<path style=" stroke:none;fill-rule:nonzero;fill:rgb(100%,100%,100%);fill-opacity:1;" d="M 270.992188 232.050781 L 283.402344 220.628906 L 268.0625 220.628906 Z M 270.992188 232.050781 "/>
<path style=" stroke:none;fill-rule:nonzero;fill:rgb(100%,100%,100%);fill-opacity:1;" d="M 265.691406 229.867188 L 278.101562 241.289062 L 273.363281 222.808594 Z M 265.691406 229.867188 "/>
<path style=" stroke:none;fill-rule:nonzero;fill:rgb(100%,100%,100%);fill-opacity:1;" d="M 265.691406 222.808594 L 260.949219 241.289062 L 273.363281 229.867188 Z M 265.691406 222.808594 "/>
<path style=" stroke:none;fill-rule:nonzero;fill:rgb(100%,100%,100%);fill-opacity:1;" d="M 270.992188 220.628906 L 255.652344 220.628906 L 268.0625 232.050781 Z M 270.992188 220.628906 "/>
<path style=" stroke:none;fill-rule:nonzero;fill:rgb(100%,100%,100%);fill-opacity:1;" d="M 274.265625 226.339844 L 269.527344 207.859375 L 264.785156 226.339844 Z M 274.265625 226.339844 "/>
<path style=" stroke:none;fill-rule:nonzero;fill:rgb(100%,100%,100%);fill-opacity:1;" d="M 330.675781 232.050781 L 343.085938 220.628906 L 327.746094 220.628906 Z M 330.675781 232.050781 "/>
<path style=" stroke:none;fill-rule:nonzero;fill:rgb(100%,100%,100%);fill-opacity:1;" d="M 325.375 229.867188 L 337.785156 241.289062 L 333.046875 222.808594 Z M 325.375 229.867188 "/>
<path style=" stroke:none;fill-rule:nonzero;fill:rgb(100%,100%,100%);fill-opacity:1;" d="M 325.375 222.808594 L 320.636719 241.289062 L 333.046875 229.867188 Z M 325.375 222.808594 "/>
<path style=" stroke:none;fill-rule:nonzero;fill:rgb(100%,100%,100%);fill-opacity:1;" d="M 330.675781 220.628906 L 315.335938 220.628906 L 327.746094 232.050781 Z M 330.675781 220.628906 "/>
<path style=" stroke:none;fill-rule:nonzero;fill:rgb(100%,100%,100%);fill-opacity:1;" d="M 333.949219 226.339844 L 329.210938 207.859375 L 324.46875 226.339844 Z M 333.949219 226.339844 "/>
<path style=" stroke:none;fill-rule:nonzero;fill:rgb(100%,100%,100%);fill-opacity:1;" d="M 62.097656 264.449219 L 74.507812 253.027344 L 59.167969 253.027344 Z M 62.097656 264.449219 "/>
<path style=" stroke:none;fill-rule:nonzero;fill:rgb(100%,100%,100%);fill-opacity:1;" d="M 56.796875 262.269531 L 69.207031 273.6875 L 64.464844 255.210938 Z M 56.796875 262.269531 "/>
<path style=" stroke:none;fill-rule:nonzero;fill:rgb(100%,100%,100%);fill-opacity:1;" d="M 56.796875 255.210938 L 52.054688 273.6875 L 64.464844 262.269531 Z M 56.796875 255.210938 "/>
<path style=" stroke:none;fill-rule:nonzero;fill:rgb(100%,100%,100%);fill-opacity:1;" d="M 62.097656 253.027344 L 46.757812 253.027344 L 59.167969 264.449219 Z M 62.097656 253.027344 "/>
<path style=" stroke:none;fill-rule:nonzero;fill:rgb(100%,100%,100%);fill-opacity:1;" d="M 65.371094 258.738281 L 60.632812 240.257812 L 55.890625 258.738281 Z M 65.371094 258.738281 "/>
<path style=" stroke:none;fill-rule:nonzero;fill:rgb(100%,100%,100%);fill-opacity:1;" d="M 121.78125 264.449219 L 134.191406 253.027344 L 118.851562 253.027344 Z M 121.78125 264.449219 "/>
<path style=" stroke:none;fill-rule:nonzero;fill:rgb(100%,100%,100%);fill-opacity:1;" d="M 116.480469 262.269531 L 128.890625 273.6875 L 124.152344 255.210938 Z M 116.480469 262.269531 "/>
<path style=" stroke:none;fill-rule:nonzero;fill:rgb(100%,100%,100%);fill-opacity:1;" d="M 116.480469 255.210938 L 111.742188 273.6875 L 124.152344 262.269531 Z M 116.480469 255.210938 "/>
<path style=" stroke:none;fill-rule:nonzero;fill:rgb(100%,100%,100%);fill-opacity:1;" d="M 121.78125 253.027344 L 106.441406 253.027344 L 118.851562 264.449219 Z M 121.78125 253.027344 "/>
<path style=" stroke:none;fill-rule:nonzero;fill:rgb(100%,100%,100%);fill-opacity:1;" d="M 125.054688 258.738281 L 120.316406 240.257812 L 115.574219 258.738281 Z M 125.054688 258.738281 "/>
<path style=" stroke:none;fill-rule:nonzero;fill:rgb(100%,100%,100%);fill-opacity:1;" d="M 181.464844 264.449219 L 193.875 253.027344 L 178.535156 253.027344 Z M 181.464844 264.449219 "/>
<path style=" stroke:none;fill-rule:nonzero;fill:rgb(100%,100%,100%);fill-opacity:1;" d="M 176.164062 262.269531 L 188.574219 273.6875 L 183.835938 255.210938 Z M 176.164062 262.269531 "/>
<path style=" stroke:none;fill-rule:nonzero;fill:rgb(100%,100%,100%);fill-opacity:1;" d="M 176.164062 255.210938 L 171.425781 273.6875 L 183.835938 262.269531 Z M 176.164062 255.210938 "/>
<path style=" stroke:none;fill-rule:nonzero;fill:rgb(100%,100%,100%);fill-opacity:1;" d="M 181.464844 253.027344 L 166.125 253.027344 L 178.535156 264.449219 Z M 181.464844 253.027344 "/>
<path style=" stroke:none;fill-rule:nonzero;fill:rgb(100%,100%,100%);fill-opacity:1;" d="M 184.742188 258.738281 L 180 240.257812 L 175.257812 258.738281 Z M 184.742188 258.738281 "/>
<path style=" stroke:none;fill-rule:nonzero;fill:rgb(100%,100%,100%);fill-opacity:1;" d="M 241.148438 264.449219 L 253.558594 253.027344 L 238.21875 253.027344 Z M 241.148438 264.449219 "/>
<path style=" stroke:none;fill-rule:nonzero;fill:rgb(100%,100%,100%);fill-opacity:1;" d="M 235.847656 262.269531 L 248.257812 273.6875 L 243.519531 255.210938 Z M 235.847656 262.269531 "/>
<path style=" stroke:none;fill-rule:nonzero;fill:rgb(100%,100%,100%);fill-opacity:1;" d="M 235.847656 255.210938 L 231.109375 273.6875 L 243.519531 262.269531 Z M 235.847656 255.210938 "/>
<path style=" stroke:none;fill-rule:nonzero;fill:rgb(100%,100%,100%);fill-opacity:1;" d="M 241.148438 253.027344 L 225.808594 253.027344 L 238.21875 264.449219 Z M 241.148438 253.027344 "/>
<path style=" stroke:none;fill-rule:nonzero;fill:rgb(100%,100%,100%);fill-opacity:1;" d="M 244.425781 258.738281 L 239.683594 240.257812 L 234.945312 258.738281 Z M 244.425781 258.738281 "/>
<path style=" stroke:none;fill-rule:nonzero;fill:rgb(100%,100%,100%);fill-opacity:1;" d="M 300.832031 264.449219 L 313.242188 253.027344 L 297.902344 253.027344 Z M 300.832031 264.449219 "/>
<path style=" stroke:none;fill-rule:nonzero;fill:rgb(100%,100%,100%);fill-opacity:1;" d="M 295.535156 262.269531 L 307.945312 273.6875 L 303.203125 255.210938 Z M 295.535156 262.269531 "/>
<path style=" stroke:none;fill-rule:nonzero;fill:rgb(100%,100%,100%);fill-opacity:1;" d="M 295.535156 255.210938 L 290.792969 273.6875 L 303.203125 262.269531 Z M 295.535156 255.210938 "/>
<path style=" stroke:none;fill-rule:nonzero;fill:rgb(100%,100%,100%);fill-opacity:1;" d="M 300.832031 253.027344 L 285.492188 253.027344 L 297.902344 264.449219 Z M 300.832031 253.027344 "/>
<path style=" stroke:none;fill-rule:nonzero;fill:rgb(100%,100%,100%);fill-opacity:1;" d="M 304.109375 258.738281 L 299.367188 240.257812 L 294.628906 258.738281 Z M 304.109375 258.738281 "/>
<path style=" stroke:none;fill-rule:nonzero;fill:rgb(100%,100%,100%);fill-opacity:1;" d="M 32.253906 296.847656 L 44.664062 285.429688 L 29.324219 285.429688 Z M 32.253906 296.847656 "/>
<path style=" stroke:none;fill-rule:nonzero;fill:rgb(100%,100%,100%);fill-opacity:1;" d="M 26.953125 294.667969 L 39.363281 306.089844 L 34.625 287.609375 Z M 26.953125 294.667969 "/>
<path style=" stroke:none;fill-rule:nonzero;fill:rgb(100%,100%,100%);fill-opacity:1;" d="M 26.953125 287.609375 L 22.214844 306.089844 L 34.625 294.667969 Z M 26.953125 287.609375 "/>
<path style=" stroke:none;fill-rule:nonzero;fill:rgb(100%,100%,100%);fill-opacity:1;" d="M 32.253906 285.429688 L 16.914062 285.429688 L 29.324219 296.847656 Z M 32.253906 285.429688 "/>
<path style=" stroke:none;fill-rule:nonzero;fill:rgb(100%,100%,100%);fill-opacity:1;" d="M 35.53125 291.136719 L 30.789062 272.660156 L 26.050781 291.136719 Z M 35.53125 291.136719 "/>
<path style=" stroke:none;fill-rule:nonzero;fill:rgb(100%,100%,100%);fill-opacity:1;" d="M 91.9375 296.847656 L 104.347656 285.429688 L 89.007812 285.429688 Z M 91.9375 296.847656 "/>
<path style=" stroke:none;fill-rule:nonzero;fill:rgb(100%,100%,100%);fill-opacity:1;" d="M 86.636719 294.667969 L 99.050781 306.089844 L 94.308594 287.609375 Z M 86.636719 294.667969 "/>
<path style=" stroke:none;fill-rule:nonzero;fill:rgb(100%,100%,100%);fill-opacity:1;" d="M 86.636719 287.609375 L 81.898438 306.089844 L 94.308594 294.667969 Z M 86.636719 287.609375 "/>
<path style=" stroke:none;fill-rule:nonzero;fill:rgb(100%,100%,100%);fill-opacity:1;" d="M 91.9375 285.429688 L 76.597656 285.429688 L 89.007812 296.847656 Z M 91.9375 285.429688 "/>
<path style=" stroke:none;fill-rule:nonzero;fill:rgb(100%,100%,100%);fill-opacity:1;" d="M 95.214844 291.136719 L 90.472656 272.660156 L 85.734375 291.136719 Z M 95.214844 291.136719 "/>
<path style=" stroke:none;fill-rule:nonzero;fill:rgb(100%,100%,100%);fill-opacity:1;" d="M 151.621094 296.847656 L 164.035156 285.429688 L 148.691406 285.429688 Z M 151.621094 296.847656 "/>
<path style=" stroke:none;fill-rule:nonzero;fill:rgb(100%,100%,100%);fill-opacity:1;" d="M 146.324219 294.667969 L 158.734375 306.089844 L 153.992188 287.609375 Z M 146.324219 294.667969 "/>
<path style=" stroke:none;fill-rule:nonzero;fill:rgb(100%,100%,100%);fill-opacity:1;" d="M 146.324219 287.609375 L 141.582031 306.089844 L 153.992188 294.667969 Z M 146.324219 287.609375 "/>
<path style=" stroke:none;fill-rule:nonzero;fill:rgb(100%,100%,100%);fill-opacity:1;" d="M 151.621094 285.429688 L 136.28125 285.429688 L 148.691406 296.847656 Z M 151.621094 285.429688 "/>
<path style=" stroke:none;fill-rule:nonzero;fill:rgb(100%,100%,100%);fill-opacity:1;" d="M 154.898438 291.136719 L 150.15625 272.660156 L 145.417969 291.136719 Z M 154.898438 291.136719 "/>
<path style=" stroke:none;fill-rule:nonzero;fill:rgb(100%,100%,100%);fill-opacity:1;" d="M 211.308594 296.847656 L 223.71875 285.429688 L 208.378906 285.429688 Z M 211.308594 296.847656 "/>
<path style=" stroke:none;fill-rule:nonzero;fill:rgb(100%,100%,100%);fill-opacity:1;" d="M 206.007812 294.667969 L 218.417969 306.089844 L 213.675781 287.609375 Z M 206.007812 294.667969 "/>
<path style=" stroke:none;fill-rule:nonzero;fill:rgb(100%,100%,100%);fill-opacity:1;" d="M 206.007812 287.609375 L 201.265625 306.089844 L 213.675781 294.667969 Z M 206.007812 287.609375 "/>
<path style=" stroke:none;fill-rule:nonzero;fill:rgb(100%,100%,100%);fill-opacity:1;" d="M 211.308594 285.429688 L 195.964844 285.429688 L 208.378906 296.847656 Z M 211.308594 285.429688 "/>
<path style=" stroke:none;fill-rule:nonzero;fill:rgb(100%,100%,100%);fill-opacity:1;" d="M 214.582031 291.136719 L 209.84375 272.660156 L 205.101562 291.136719 Z M 214.582031 291.136719 "/>
<path style=" stroke:none;fill-rule:nonzero;fill:rgb(100%,100%,100%);fill-opacity:1;" d="M 270.992188 296.847656 L 283.402344 285.429688 L 268.0625 285.429688 Z M 270.992188 296.847656 "/>
<path style=" stroke:none;fill-rule:nonzero;fill:rgb(100%,100%,100%);fill-opacity:1;" d="M 265.691406 294.667969 L 278.101562 306.089844 L 273.363281 287.609375 Z M 265.691406 294.667969 "/>
<path style=" stroke:none;fill-rule:nonzero;fill:rgb(100%,100%,100%);fill-opacity:1;" d="M 265.691406 287.609375 L 260.949219 306.089844 L 273.363281 294.667969 Z M 265.691406 287.609375 "/>
<path style=" stroke:none;fill-rule:nonzero;fill:rgb(100%,100%,100%);fill-opacity:1;" d="M 270.992188 285.429688 L 255.652344 285.429688 L 268.0625 296.847656 Z M 270.992188 285.429688 "/>
<path style=" stroke:none;fill-rule:nonzero;fill:rgb(100%,100%,100%);fill-opacity:1;" d="M 274.265625 291.136719 L 269.527344 272.660156 L 264.785156 291.136719 Z M 274.265625 291.136719 "/>
<path style=" stroke:none;fill-rule:nonzero;fill:rgb(100%,100%,100%);fill-opacity:1;" d="M 330.675781 296.847656 L 343.085938 285.429688 L 327.746094 285.429688 Z M 330.675781 296.847656 "/>
<path style=" stroke:none;fill-rule:nonzero;fill:rgb(100%,100%,100%);fill-opacity:1;" d="M 325.375 294.667969 L 337.785156 306.089844 L 333.046875 287.609375 Z M 325.375 294.667969 "/>
<path style=" stroke:none;fill-rule:nonzero;fill:rgb(100%,100%,100%);fill-opacity:1;" d="M 325.375 287.609375 L 320.636719 306.089844 L 333.046875 294.667969 Z M 325.375 287.609375 "/>
<path style=" stroke:none;fill-rule:nonzero;fill:rgb(100%,100%,100%);fill-opacity:1;" d="M 330.675781 285.429688 L 315.335938 285.429688 L 327.746094 296.847656 Z M 330.675781 285.429688 "/>
<path style=" stroke:none;fill-rule:nonzero;fill:rgb(100%,100%,100%);fill-opacity:1;" d="M 333.949219 291.136719 L 329.210938 272.660156 L 324.46875 291.136719 Z M 333.949219 291.136719 "/>
</g>
</svg>
